<?xml version="1.0" encoding="utf-8"?>
<!-- Generator: Adobe Illustrator 22.1.0, SVG Export Plug-In . SVG Version: 6.00 Build 0)  -->
<svg version="1.1" id="Layer_1" xmlns="http://www.w3.org/2000/svg" xmlns:xlink="http://www.w3.org/1999/xlink" x="0px" y="0px"
	 viewBox="0 0 33 29" style="enable-background:new 0 0 33 29;" xml:space="preserve">
<style type="text/css">
	.st0{fill:#364756;}
</style>
<title>C8FC5754-9CBE-4CE7-BB2F-0355858DC5A2</title>
<desc>Created with sketchtool.</desc>
<path class="st0" d="M7.9,5.8C7.9,5.8,7.9,5.8,7.9,5.8c0,0.1,0,0.1,0,0.2l0.4,0.7c0,0,0,0,0,0l0.8,0.8C8.9,7.7,8.6,8,8.4,8.3l-1-0.6
	c0,0,0,0,0,0L6.7,7.5c-0.1,0-0.1,0-0.2,0.1c0,0-0.1,0.2-0.2,0.3C6.3,8,6.2,8.2,6.2,8.2c0,0,0,0,0,0.1c0,0,0,0.1,0,0.1l0.6,0.5
	c0,0,0,0,0,0l1,0.6c-0.2,0.3-0.3,0.7-0.4,1l-1.1-0.3c0,0,0,0,0,0l-0.8,0c-0.1,0-0.1,0-0.1,0.1l-0.1,0.3c0,0.1-0.1,0.4-0.1,0.4
	c0,0,0,0,0,0c0,0.1,0,0.1,0.1,0.1l0.7,0.4c0,0,0,0,0,0L7,11.8c-0.1,0.4-0.1,0.7-0.1,1.1H5.7c0,0,0,0,0,0l-0.7,0.2
	c-0.1,0-0.1,0.1-0.1,0.1v0.4V14c0,0.1,0,0.1,0.1,0.1l0.7,0.2c0,0,0,0,0,0h1.1c0,0.4,0.1,0.8,0.1,1.1l-1.1,0.3c0,0,0,0,0,0l-0.7,0.4
	c0,0-0.1,0.1-0.1,0.1c0,0,0,0,0,0c0,0,0.1,0.2,0.1,0.3c0,0.1,0.1,0.4,0.1,0.4C5.3,17,5.4,17,5.4,17l0.8,0c0,0,0,0,0,0l1.1-0.3
	c0.1,0.4,0.3,0.7,0.4,1l-1,0.6c0,0,0,0,0,0l-0.6,0.5c0,0-0.1,0.1,0,0.1c0,0,0,0,0,0c0,0,0.1,0.2,0.2,0.3c0.1,0.1,0.2,0.3,0.2,0.3
	c0,0.1,0.1,0.1,0.2,0.1l0.7-0.2c0,0,0,0,0,0l1-0.6c0.2,0.3,0.4,0.6,0.7,0.9l-0.8,0.8c0,0,0,0,0,0l-0.4,0.7c0,0,0,0.1,0,0.1
	c0,0,0,0.1,0,0.1c0,0,0.2,0.2,0.3,0.3c0.1,0.1,0.3,0.3,0.3,0.3c0,0,0.1,0,0.2,0l0.7-0.4c0,0,0,0,0,0l0.8-0.8
	c0.3,0.2,0.6,0.5,0.9,0.7l-0.6,1c0,0,0,0,0,0l-0.2,0.7c0,0,0,0,0,0c0,0,0,0.1,0.1,0.1c0,0,0.2,0.1,0.3,0.2c0.1,0.1,0.3,0.2,0.3,0.2
	c0.1,0,0.1,0,0.2,0l0.5-0.6c0,0,0,0,0,0l0.6-1c0.3,0.2,0.7,0.3,1,0.4l-0.3,1.1c0,0,0,0,0,0l0,0.8c0,0.1,0,0.1,0.1,0.1
	c0,0,0.2,0.1,0.3,0.1c0.1,0,0.4,0.1,0.4,0.1c0.1,0,0.1,0,0.1-0.1l0.4-0.7c0,0,0,0,0,0l0.3-1.1c0.4,0.1,0.7,0.1,1.1,0.1l0,1.1
	c0,0,0,0,0,0l0.2,0.7c0,0.1,0.1,0.1,0.1,0.1h0.4h0.4c0.1,0,0.1,0,0.1-0.1l0.2-0.7c0,0,0,0,0,0l0-1.1c0.4,0,0.8-0.1,1.1-0.1l0.3,1.1
	c0,0,0,0,0,0l0.4,0.7c0,0.1,0.1,0.1,0.1,0.1c0,0,0.2-0.1,0.3-0.1c0.1,0,0.4-0.1,0.4-0.1c0.1,0,0.1-0.1,0.1-0.1l0-0.8c0,0,0,0,0,0
	l-0.3-1.1c0.4-0.1,0.7-0.3,1-0.4l0.6,1c0,0,0,0,0,0l0.5,0.6c0,0,0.1,0.1,0.2,0c0,0,0.2-0.1,0.3-0.2c0.1-0.1,0.3-0.2,0.3-0.2
	c0.1,0,0.1-0.1,0.1-0.2l-0.2-0.7c0,0,0,0,0,0l-0.6-1c0.3-0.2,0.6-0.4,0.9-0.7l0.8,0.8c0,0,0,0,0,0l0.7,0.4c0.1,0,0.1,0,0.2,0
	l0.3-0.3c0.1-0.1,0.3-0.3,0.3-0.3c0,0,0-0.1,0-0.2l-0.4-0.7c0,0,0,0,0,0l-0.8-0.8c0.2-0.3,0.5-0.6,0.7-0.9l1,0.6c0,0,0,0,0,0
	l0.7,0.2c0.1,0,0.1,0,0.2-0.1c0,0,0.1-0.2,0.2-0.3c0.1-0.1,0.2-0.3,0.2-0.3c0-0.1,0-0.1,0-0.2l-0.6-0.5c0,0,0,0,0,0l-1-0.6
	c0.2-0.3,0.3-0.7,0.4-1l1.1,0.3c0,0,0,0,0,0l0.8,0c0.1,0,0.1,0,0.1-0.1c0,0,0.1-0.2,0.1-0.4c0-0.1,0.1-0.4,0.1-0.4
	c0-0.1,0-0.1-0.1-0.1l-0.7-0.4c0,0,0,0,0,0l-1.1-0.3c0.1-0.4,0.1-0.7,0.1-1.1h1.1c0,0,0,0,0,0l0.7-0.2c0.1,0,0.1-0.1,0.1-0.1v-0.4
	v-0.4c0-0.1,0-0.1-0.1-0.1l-0.7-0.2c0,0,0,0,0,0h-1.1c0-0.4-0.1-0.8-0.1-1.1l1.1-0.3c0,0,0,0,0,0l0.7-0.4c0.1,0,0.1-0.1,0.1-0.1
	c0,0-0.1-0.2-0.1-0.4c0-0.1-0.1-0.3-0.1-0.3c0-0.1-0.1-0.1-0.1-0.1l-0.8,0c0,0,0,0,0,0l-1.1,0.3c-0.1-0.4-0.3-0.7-0.4-1l1-0.6
	c0,0,0,0,0,0l0.6-0.5c0,0,0.1-0.1,0-0.2c0,0-0.1-0.2-0.2-0.3c-0.1-0.1-0.2-0.3-0.2-0.3c0-0.1-0.1-0.1-0.2-0.1L25,7.7c0,0,0,0,0,0
	l-1,0.6c-0.2-0.3-0.4-0.6-0.7-0.9l0.8-0.8c0,0,0,0,0,0L24.5,6c0-0.1,0-0.1,0-0.2l-0.3-0.3C24.2,5.4,24,5.3,24,5.3c0,0-0.1,0-0.2,0
	l-0.7,0.4c0,0,0,0,0,0l-0.8,0.8c-0.3-0.2-0.6-0.5-0.9-0.7l0.6-1c0,0,0,0,0,0l0.2-0.7c0-0.1,0-0.1-0.1-0.2c0,0-0.2-0.1-0.3-0.2
	c-0.1-0.1-0.3-0.2-0.3-0.2c-0.1,0-0.1,0-0.2,0l-0.5,0.6c0,0,0,0,0,0l-0.6,1c-0.3-0.2-0.7-0.3-1-0.4l0.3-1.1c0,0,0,0,0,0l0-0.8
	c0-0.1,0-0.1-0.1-0.1c0,0-0.2-0.1-0.4-0.1c-0.1,0-0.3-0.1-0.3-0.1c-0.1,0-0.1,0-0.1,0.1l-0.4,0.7c0,0,0,0,0,0L18,4.3
	c-0.4-0.1-0.7-0.1-1.1-0.1l0-1.1c0,0,0,0,0,0l-0.2-0.7c0-0.1-0.1-0.1-0.1-0.1h-0.4h-0.4c-0.1,0-0.1,0.1-0.1,0.1l-0.2,0.7
	c0,0,0,0,0,0l0,1.1c-0.4,0-0.8,0.1-1.1,0.1l-0.3-1.1c0,0,0,0,0,0l-0.4-0.7c0-0.1-0.1-0.1-0.1-0.1c0,0-0.2,0.1-0.4,0.1
	c-0.1,0-0.3,0.1-0.3,0.1c-0.1,0-0.1,0.1-0.1,0.1l0,0.8c0,0,0,0,0,0l0.3,1.1c-0.4,0.1-0.7,0.3-1,0.4l-0.6-1c0,0,0,0,0,0L11,3.6
	c0,0-0.1-0.1-0.2,0c0,0-0.2,0.1-0.3,0.2c-0.1,0.1-0.3,0.2-0.3,0.2c0,0-0.1,0.1-0.1,0.1c0,0,0,0,0,0l0.2,0.7c0,0,0,0,0,0l0.6,1
	C10.6,6,10.3,6.2,10,6.5L9.3,5.7c0,0,0,0,0,0L8.6,5.3c-0.1,0-0.1,0-0.2,0c0,0-0.2,0.2-0.3,0.3L7.9,5.8L7.9,5.8z M10.2,9.2
	c0,0,0.1,0,0.1,0l1.6,1.6c0.1,0.1,0.3,0.1,0.4,0l1.1-1.1c0.1-0.1,0.1-0.3,0-0.4l-1.6-1.6c0,0,0-0.1,0-0.1c0,0,0,0,0,0
	c1-0.3,2.1-0.1,2.9,0.7c0.8,0.8,1,2,0.6,2.9l6.1,5.4c0.7,0.6,0.6,1.6,0,2.3c-0.6,0.6-1.7,0.7-2.3,0c-1.6-1.8-3.8-4.2-5.4-6.1
	c-1,0.4-2.2,0.2-2.9-0.6C10.1,11.3,9.8,10.2,10.2,9.2C10.2,9.2,10.2,9.2,10.2,9.2L10.2,9.2z M19.6,17c-0.4,0.4-0.4,1,0,1.3
	c0.4,0.4,1,0.4,1.3,0c0.4-0.4,0.4-1,0-1.3C20.6,16.6,20,16.6,19.6,17L19.6,17z"/>
</svg>
